<?xml version="1.0" encoding="UTF-8"?>
<svg xmlns="http://www.w3.org/2000/svg" xmlns:xlink="http://www.w3.org/1999/xlink" width="50pt" height="50pt" viewBox="0 0 50 50" version="1.1">
<defs>
<linearGradient id="linear0" gradientUnits="userSpaceOnUse" x1="15" y1="47" x2="15" y2="51" spreadMethod="reflect" gradientTransform="matrix(0.78125,0,0,0.78125,0,0)">
<stop offset="0" style="stop-color:#6DC7FF;stop-opacity:1;"/>
<stop offset="1" style="stop-color:#E6ABFF;stop-opacity:1;"/>
</linearGradient>
<linearGradient id="linear1" gradientUnits="userSpaceOnUse" x1="49" y1="47" x2="49" y2="51" spreadMethod="reflect" gradientTransform="matrix(0.78125,0,0,0.78125,0,0)">
<stop offset="0" style="stop-color:#6DC7FF;stop-opacity:1;"/>
<stop offset="1" style="stop-color:#E6ABFF;stop-opacity:1;"/>
</linearGradient>
<linearGradient id="linear2" gradientUnits="userSpaceOnUse" x1="32" y1="14" x2="32" y2="27" spreadMethod="reflect" gradientTransform="matrix(0.78125,0,0,0.78125,0,0)">
<stop offset="0" style="stop-color:#6DC7FF;stop-opacity:1;"/>
<stop offset="1" style="stop-color:#E6ABFF;stop-opacity:1;"/>
</linearGradient>
<linearGradient id="linear3" gradientUnits="userSpaceOnUse" x1="17" y1="11.5926" x2="17" y2="48.3671" spreadMethod="reflect" gradientTransform="matrix(0.78125,0,0,0.78125,0,0)">
<stop offset="0" style="stop-color:#1A6DFF;stop-opacity:1;"/>
<stop offset="1" style="stop-color:#C822FF;stop-opacity:1;"/>
</linearGradient>
<linearGradient id="linear4" gradientUnits="userSpaceOnUse" x1="47" y1="11.3704" x2="47" y2="48.3503" spreadMethod="reflect" gradientTransform="matrix(0.78125,0,0,0.78125,0,0)">
<stop offset="0" style="stop-color:#1A6DFF;stop-opacity:1;"/>
<stop offset="1" style="stop-color:#C822FF;stop-opacity:1;"/>
</linearGradient>
<linearGradient id="linear5" gradientUnits="userSpaceOnUse" x1="32" y1="10.455" x2="32" y2="52.6588" spreadMethod="reflect" gradientTransform="matrix(0.78125,0,0,0.78125,0,0)">
<stop offset="0" style="stop-color:#1A6DFF;stop-opacity:1;"/>
<stop offset="1" style="stop-color:#C822FF;stop-opacity:1;"/>
</linearGradient>
</defs>
<g id="surface1">
<path style=" stroke:none;fill-rule:nonzero;fill:url(#linear0);" d="M 14.84375 36.71875 L 14.84375 39.0625 C 14.84375 39.492188 14.492188 39.84375 14.0625 39.84375 L 9.375 39.84375 C 8.945313 39.84375 8.59375 39.492188 8.59375 39.0625 L 8.59375 36.71875 Z "/>
<path style=" stroke:none;fill-rule:nonzero;fill:url(#linear1);" d="M 41.40625 36.71875 L 41.40625 39.0625 C 41.40625 39.492188 41.054688 39.84375 40.625 39.84375 L 35.9375 39.84375 C 35.507813 39.84375 35.15625 39.492188 35.15625 39.0625 L 35.15625 36.71875 Z "/>
<path style=" stroke:none;fill-rule:nonzero;fill:url(#linear2);" d="M 40.789063 21.09375 L 9.210938 21.09375 L 13.351563 12.28125 C 13.742188 11.46875 14.570313 10.9375 15.476563 10.9375 L 34.523438 10.9375 C 35.429688 10.9375 36.257813 11.46875 36.648438 12.28125 Z "/>
<path style=" stroke:none;fill-rule:nonzero;fill:url(#linear3);" d="M 15.625 22.65625 L 10.9375 22.65625 C 9.644531 22.65625 8.59375 23.707031 8.59375 25 L 8.59375 26.5625 C 8.59375 27.855469 9.644531 28.90625 10.9375 28.90625 L 15.625 28.90625 C 16.917969 28.90625 17.96875 27.855469 17.96875 26.5625 L 17.96875 25 C 17.96875 23.707031 16.917969 22.65625 15.625 22.65625 Z M 16.40625 26.5625 C 16.40625 26.992188 16.054688 27.34375 15.625 27.34375 L 10.9375 27.34375 C 10.507813 27.34375 10.15625 26.992188 10.15625 26.5625 L 10.15625 25 C 10.15625 24.570313 10.507813 24.21875 10.9375 24.21875 L 15.625 24.21875 C 16.054688 24.21875 16.40625 24.570313 16.40625 25 Z "/>
<path style=" stroke:none;fill-rule:nonzero;fill:url(#linear4);" d="M 32.03125 25 L 32.03125 26.5625 C 32.03125 27.855469 33.082031 28.90625 34.375 28.90625 L 39.0625 28.90625 C 40.355469 28.90625 41.40625 27.855469 41.40625 26.5625 L 41.40625 25 C 41.40625 23.707031 40.355469 22.65625 39.0625 22.65625 L 34.375 22.65625 C 33.082031 22.65625 32.03125 23.707031 32.03125 25 Z M 39.84375 25 L 39.84375 26.5625 C 39.84375 26.992188 39.492188 27.34375 39.0625 27.34375 L 34.375 27.34375 C 33.945313 27.34375 33.59375 26.992188 33.59375 26.5625 L 33.59375 25 C 33.59375 24.570313 33.945313 24.21875 34.375 24.21875 L 39.0625 24.21875 C 39.492188 24.21875 39.84375 24.570313 39.84375 25 Z "/>
<path style=" stroke:none;fill-rule:nonzero;fill:url(#linear5);" d="M 44.660156 16.40625 L 42.039063 16.40625 L 39.472656 10.953125 C 38.578125 9.046875 36.632813 7.8125 34.523438 7.8125 L 15.476563 7.8125 C 13.367188 7.8125 11.421875 9.046875 10.527344 10.953125 L 7.960938 16.40625 L 5.339844 16.40625 C 2.554688 16.40625 1.5625 18.117188 1.5625 19.714844 C 1.5625 20.699219 2.046875 21.875 4.355469 21.875 L 5.46875 21.875 L 5.46875 33.59375 C 5.46875 34.746094 6.101563 35.742188 7.03125 36.285156 L 7.03125 39.0625 C 7.03125 40.355469 8.082031 41.40625 9.375 41.40625 L 14.0625 41.40625 C 15.355469 41.40625 16.40625 40.355469 16.40625 39.0625 L 16.40625 36.71875 L 33.59375 36.71875 L 33.59375 39.0625 C 33.59375 40.355469 34.644531 41.40625 35.9375 41.40625 L 40.625 41.40625 C 41.917969 41.40625 42.96875 40.355469 42.96875 39.0625 L 42.96875 36.285156 C 43.898438 35.742188 44.53125 34.746094 44.53125 33.59375 L 44.53125 21.875 L 45.644531 21.875 C 47.953125 21.875 48.4375 20.699219 48.4375 19.714844 C 48.4375 18.117188 47.445313 16.40625 44.660156 16.40625 Z M 4.355469 20.3125 C 3.125 20.3125 3.125 19.980469 3.125 19.714844 C 3.125 18.554688 3.871094 17.96875 5.339844 17.96875 L 7.226563 17.96875 L 6.121094 20.3125 Z M 14.84375 39.0625 C 14.84375 39.492188 14.492188 39.84375 14.0625 39.84375 L 9.375 39.84375 C 8.945313 39.84375 8.59375 39.492188 8.59375 39.0625 L 8.59375 36.71875 L 14.84375 36.71875 Z M 13.28125 35.15625 L 13.28125 34.375 C 13.28125 33.945313 13.632813 33.59375 14.0625 33.59375 L 35.9375 33.59375 C 36.367188 33.59375 36.71875 33.945313 36.71875 34.375 L 36.71875 35.15625 Z M 41.40625 39.0625 C 41.40625 39.492188 41.054688 39.84375 40.625 39.84375 L 35.9375 39.84375 C 35.507813 39.84375 35.15625 39.492188 35.15625 39.0625 L 35.15625 36.71875 L 41.40625 36.71875 Z M 41.40625 35.15625 L 38.28125 35.15625 L 38.28125 34.375 C 38.28125 33.082031 37.230469 32.03125 35.9375 32.03125 L 14.0625 32.03125 C 12.769531 32.03125 11.71875 33.082031 11.71875 34.375 L 11.71875 35.15625 L 8.59375 35.15625 C 7.730469 35.15625 7.03125 34.457031 7.03125 33.59375 L 7.03125 32.8125 L 10.15625 32.8125 L 10.15625 31.25 L 7.03125 31.25 L 7.03125 22.050781 L 11.941406 11.617188 C 12.582031 10.253906 13.96875 9.375 15.476563 9.375 L 34.527344 9.375 C 36.03125 9.375 37.417969 10.253906 38.058594 11.617188 L 42.96875 22.050781 L 42.96875 31.25 L 39.84375 31.25 L 39.84375 32.8125 L 42.96875 32.8125 L 42.96875 33.59375 C 42.96875 34.457031 42.269531 35.15625 41.40625 35.15625 Z M 45.644531 20.3125 L 43.878906 20.3125 L 42.773438 17.96875 L 44.660156 17.96875 C 46.128906 17.96875 46.875 18.554688 46.875 19.714844 C 46.875 19.980469 46.875 20.3125 45.644531 20.3125 Z "/>
</g>
</svg>
