<?xml version="1.0" encoding="UTF-8"?>
<svg xmlns="http://www.w3.org/2000/svg" xmlns:xlink="http://www.w3.org/1999/xlink" width="50pt" height="50pt" viewBox="0 0 50 50" version="1.1">
<defs>
<linearGradient id="linear0" gradientUnits="userSpaceOnUse" x1="18" y1="21.1667" x2="18" y2="26.8358" spreadMethod="reflect" gradientTransform="matrix(0.78125,0,0,0.78125,0,0)">
<stop offset="0" style="stop-color:#6DC7FF;stop-opacity:1;"/>
<stop offset="1" style="stop-color:#E6ABFF;stop-opacity:1;"/>
</linearGradient>
<linearGradient id="linear1" gradientUnits="userSpaceOnUse" x1="46" y1="21.1667" x2="46" y2="26.8358" spreadMethod="reflect" gradientTransform="matrix(0.78125,0,0,0.78125,0,0)">
<stop offset="0" style="stop-color:#6DC7FF;stop-opacity:1;"/>
<stop offset="1" style="stop-color:#E6ABFF;stop-opacity:1;"/>
</linearGradient>
<linearGradient id="linear2" gradientUnits="userSpaceOnUse" x1="32" y1="12.3333" x2="32" y2="52.0284" spreadMethod="reflect" gradientTransform="matrix(0.78125,0,0,0.78125,0,0)">
<stop offset="0" style="stop-color:#1A6DFF;stop-opacity:1;"/>
<stop offset="1" style="stop-color:#C822FF;stop-opacity:1;"/>
</linearGradient>
<linearGradient id="linear3" gradientUnits="userSpaceOnUse" x1="32" y1="12.3333" x2="32" y2="52.0284" spreadMethod="reflect" gradientTransform="matrix(0.78125,0,0,0.78125,0,0)">
<stop offset="0" style="stop-color:#1A6DFF;stop-opacity:1;"/>
<stop offset="1" style="stop-color:#C822FF;stop-opacity:1;"/>
</linearGradient>
</defs>
<g id="surface1">
<path style=" stroke:none;fill-rule:nonzero;fill:url(#linear0);" d="M 8.59375 17.96875 L 19.53125 17.96875 L 19.53125 19.53125 L 8.59375 19.53125 Z "/>
<path style=" stroke:none;fill-rule:nonzero;fill:url(#linear1);" d="M 30.46875 17.96875 L 41.40625 17.96875 L 41.40625 19.53125 L 30.46875 19.53125 Z "/>
<path style=" stroke:none;fill-rule:nonzero;fill:url(#linear2);" d="M 43.75 10.15625 L 28.125 10.15625 C 26.84375 10.15625 25.710938 10.785156 25 11.742188 C 24.289063 10.785156 23.15625 10.15625 21.875 10.15625 L 6.25 10.15625 C 4.097656 10.15625 2.34375 11.910156 2.34375 14.0625 L 2.34375 37.5 C 2.34375 38.792969 3.394531 39.84375 4.6875 39.84375 L 6.25 39.84375 C 7.542969 39.84375 8.59375 38.792969 8.59375 37.5 L 8.59375 34.375 C 8.59375 33.945313 8.945313 33.59375 9.375 33.59375 L 40.613281 33.59375 C 41.050781 33.59375 41.40625 33.949219 41.40625 34.386719 L 41.40625 37.5 C 41.40625 38.792969 42.457031 39.84375 43.75 39.84375 L 45.3125 39.84375 C 46.605469 39.84375 47.65625 38.792969 47.65625 37.5 L 47.65625 14.0625 C 47.65625 11.910156 45.902344 10.15625 43.75 10.15625 Z M 28.125 11.71875 L 43.75 11.71875 C 45.042969 11.71875 46.09375 12.769531 46.09375 14.0625 L 46.09375 23.457031 C 45.636719 23.113281 45.113281 22.851563 44.53125 22.734375 L 44.53125 21.875 C 44.53125 20.859375 43.875 20 42.96875 19.675781 L 42.96875 18.75 C 42.96875 17.457031 41.917969 16.40625 40.625 16.40625 L 31.25 16.40625 C 29.957031 16.40625 28.90625 17.457031 28.90625 18.75 L 28.90625 19.53125 L 25.78125 19.53125 L 25.78125 14.0625 C 25.78125 12.769531 26.832031 11.71875 28.125 11.71875 Z M 19.53125 19.53125 L 8.59375 19.53125 L 8.59375 18.75 C 8.59375 18.320313 8.945313 17.96875 9.375 17.96875 L 18.75 17.96875 C 19.179688 17.96875 19.53125 18.320313 19.53125 18.75 Z M 7.8125 21.09375 L 42.1875 21.09375 C 42.617188 21.09375 42.96875 21.445313 42.96875 21.875 L 42.96875 22.65625 L 7.03125 22.65625 L 7.03125 21.875 C 7.03125 21.445313 7.382813 21.09375 7.8125 21.09375 Z M 41.40625 19.53125 L 30.46875 19.53125 L 30.46875 18.75 C 30.46875 18.320313 30.820313 17.96875 31.25 17.96875 L 40.625 17.96875 C 41.054688 17.96875 41.40625 18.320313 41.40625 18.75 Z M 6.25 11.71875 L 21.875 11.71875 C 23.167969 11.71875 24.21875 12.769531 24.21875 14.0625 L 24.21875 19.53125 L 21.09375 19.53125 L 21.09375 18.75 C 21.09375 17.457031 20.042969 16.40625 18.75 16.40625 L 9.375 16.40625 C 8.082031 16.40625 7.03125 17.457031 7.03125 18.75 L 7.03125 19.675781 C 6.125 20 5.46875 20.859375 5.46875 21.875 L 5.46875 22.734375 C 4.886719 22.851563 4.363281 23.113281 3.90625 23.457031 L 3.90625 14.0625 C 3.90625 12.769531 4.957031 11.71875 6.25 11.71875 Z M 7.03125 34.375 L 7.03125 37.5 C 7.03125 37.929688 6.679688 38.28125 6.25 38.28125 L 4.6875 38.28125 C 4.257813 38.28125 3.90625 37.929688 3.90625 37.5 L 3.90625 33.59375 L 7.175781 33.59375 C 7.085938 33.839844 7.03125 34.097656 7.03125 34.375 Z M 46.09375 37.5 C 46.09375 37.929688 45.742188 38.28125 45.3125 38.28125 L 43.75 38.28125 C 43.320313 38.28125 42.96875 37.929688 42.96875 37.5 L 42.96875 34.386719 C 42.96875 34.109375 42.910156 33.84375 42.820313 33.59375 L 46.09375 33.59375 Z M 46.09375 32.03125 L 3.90625 32.03125 L 3.90625 26.5625 C 3.90625 25.269531 4.957031 24.21875 6.25 24.21875 L 43.75 24.21875 C 45.042969 24.21875 46.09375 25.269531 46.09375 26.5625 Z "/>
<path style=" stroke:none;fill-rule:nonzero;fill:url(#linear3);" d="M 8.59375 27.34375 L 41.40625 27.34375 L 41.40625 28.90625 L 8.59375 28.90625 Z "/>
</g>
</svg>
