<?xml version="1.0" encoding="UTF-8"?>
<svg xmlns="http://www.w3.org/2000/svg" xmlns:xlink="http://www.w3.org/1999/xlink" width="50pt" height="50pt" viewBox="0 0 50 50" version="1.1">
<defs>
<linearGradient id="linear0" gradientUnits="userSpaceOnUse" x1="32" y1="11" x2="32" y2="52.8763" spreadMethod="reflect" gradientTransform="matrix(0.78125,0,0,0.78125,0,0)">
<stop offset="0" style="stop-color:#1A6DFF;stop-opacity:1;"/>
<stop offset="1" style="stop-color:#C822FF;stop-opacity:1;"/>
</linearGradient>
<linearGradient id="linear1" gradientUnits="userSpaceOnUse" x1="31.5" y1="27.5" x2="31.5" y2="37.5031" spreadMethod="reflect" gradientTransform="matrix(0.78125,0,0,0.78125,0,0)">
<stop offset="0" style="stop-color:#6DC7FF;stop-opacity:1;"/>
<stop offset="1" style="stop-color:#E6ABFF;stop-opacity:1;"/>
</linearGradient>
</defs>
<g id="surface1">
<path style=" stroke:none;fill-rule:nonzero;fill:url(#linear0);" d="M 46.09375 22.65625 C 46.957031 22.65625 47.65625 21.957031 47.65625 21.09375 L 47.65625 19.53125 C 47.65625 18.667969 46.957031 17.96875 46.09375 17.96875 L 38.28125 17.96875 L 38.28125 10.9375 C 38.28125 10.074219 37.582031 9.375 36.71875 9.375 L 33.59375 9.375 C 32.730469 9.375 32.03125 10.074219 32.03125 10.9375 C 32.03125 11.367188 31.679688 11.71875 31.25 11.71875 C 29.957031 11.71875 28.90625 12.769531 28.90625 14.0625 C 28.90625 14.492188 28.554688 14.84375 28.125 14.84375 L 20.3125 14.84375 C 16.699219 14.84375 13.71875 17.582031 13.328125 21.09375 L 12.5 21.09375 C 11.484375 21.09375 10.625 21.75 10.300781 22.65625 L 8.59375 22.65625 C 7.730469 22.65625 7.03125 23.355469 7.03125 24.21875 L 2.34375 24.21875 L 2.34375 25.78125 L 7.03125 25.78125 C 7.03125 26.644531 7.730469 27.34375 8.59375 27.34375 L 10.300781 27.34375 C 10.625 28.25 11.484375 28.90625 12.5 28.90625 L 13.328125 28.90625 C 13.71875 32.417969 16.699219 35.15625 20.3125 35.15625 L 28.125 35.15625 C 28.554688 35.15625 28.90625 35.507813 28.90625 35.9375 C 28.90625 37.230469 29.957031 38.28125 31.25 38.28125 C 31.679688 38.28125 32.03125 38.632813 32.03125 39.0625 C 32.03125 39.925781 32.730469 40.625 33.59375 40.625 L 36.71875 40.625 C 37.582031 40.625 38.28125 39.925781 38.28125 39.0625 L 38.28125 32.03125 L 46.09375 32.03125 C 46.957031 32.03125 47.65625 31.332031 47.65625 30.46875 L 47.65625 28.90625 C 47.65625 28.042969 46.957031 27.34375 46.09375 27.34375 L 38.28125 27.34375 L 38.28125 22.65625 Z M 46.09375 21.09375 L 38.28125 21.09375 L 38.28125 19.53125 L 46.09375 19.53125 Z M 8.59375 24.21875 L 10.15625 24.21875 L 10.15625 25.78125 L 8.59375 25.78125 Z M 11.71875 26.5625 L 11.71875 23.4375 C 11.71875 23.007813 12.070313 22.65625 12.5 22.65625 L 13.28125 22.65625 L 13.28125 27.34375 L 12.5 27.34375 C 12.070313 27.34375 11.71875 26.992188 11.71875 26.5625 Z M 28.125 33.59375 L 20.3125 33.59375 C 17.296875 33.59375 14.84375 31.140625 14.84375 28.125 L 14.84375 21.875 C 14.84375 18.859375 17.296875 16.40625 20.3125 16.40625 L 28.125 16.40625 C 28.398438 16.40625 28.660156 16.351563 28.90625 16.261719 L 28.90625 19.53125 L 21.09375 19.53125 C 18.941406 19.53125 17.1875 21.285156 17.1875 23.4375 L 17.1875 26.5625 C 17.1875 28.714844 18.941406 30.46875 21.09375 30.46875 L 28.90625 30.46875 L 28.90625 33.738281 C 28.660156 33.648438 28.398438 33.59375 28.125 33.59375 Z M 28.90625 28.90625 L 21.09375 28.90625 C 19.800781 28.90625 18.75 27.855469 18.75 26.5625 L 18.75 23.4375 C 18.75 22.144531 19.800781 21.09375 21.09375 21.09375 L 28.90625 21.09375 Z M 31.25 36.71875 C 30.820313 36.71875 30.46875 36.367188 30.46875 35.9375 L 30.46875 14.0625 C 30.46875 13.632813 30.820313 13.28125 31.25 13.28125 C 31.523438 13.28125 31.785156 13.226563 32.03125 13.136719 L 32.03125 36.863281 C 31.785156 36.773438 31.523438 36.71875 31.25 36.71875 Z M 36.71875 39.0625 L 33.59375 39.0625 L 33.59375 10.9375 L 36.71875 10.9375 Z M 46.09375 28.90625 L 46.09375 30.46875 L 38.28125 30.46875 L 38.28125 28.90625 Z "/>
<path style=" stroke:none;fill-rule:nonzero;fill:url(#linear1);" d="M 28.90625 22.65625 L 21.09375 22.65625 C 20.664063 22.65625 20.3125 23.007813 20.3125 23.4375 L 20.3125 26.5625 C 20.3125 26.992188 20.664063 27.34375 21.09375 27.34375 L 28.90625 27.34375 Z "/>
</g>
</svg>
