<?xml version="1.0" encoding="UTF-8"?>
<svg xmlns="http://www.w3.org/2000/svg" xmlns:xlink="http://www.w3.org/1999/xlink" width="50pt" height="50pt" viewBox="0 0 50 50" version="1.1">
<defs>
<linearGradient id="linear0" gradientUnits="userSpaceOnUse" x1="21.0009" y1="29.625" x2="21.0009" y2="52.2514" spreadMethod="reflect" gradientTransform="matrix(0.78125,0,0,0.78125,0,0)">
<stop offset="0" style="stop-color:#6DC7FF;stop-opacity:1;"/>
<stop offset="1" style="stop-color:#E6ABFF;stop-opacity:1;"/>
</linearGradient>
<linearGradient id="linear1" gradientUnits="userSpaceOnUse" x1="21" y1="5.75" x2="21" y2="58.5118" spreadMethod="reflect" gradientTransform="matrix(0.78125,0,0,0.78125,0,0)">
<stop offset="0" style="stop-color:#1A6DFF;stop-opacity:1;"/>
<stop offset="1" style="stop-color:#C822FF;stop-opacity:1;"/>
</linearGradient>
<linearGradient id="linear2" gradientUnits="userSpaceOnUse" x1="21.0005" y1="5.75" x2="21.0005" y2="58.5118" spreadMethod="reflect" gradientTransform="matrix(0.78125,0,0,0.78125,0,0)">
<stop offset="0" style="stop-color:#1A6DFF;stop-opacity:1;"/>
<stop offset="1" style="stop-color:#C822FF;stop-opacity:1;"/>
</linearGradient>
<linearGradient id="linear3" gradientUnits="userSpaceOnUse" x1="47" y1="5.75" x2="47" y2="58.5118" spreadMethod="reflect" gradientTransform="matrix(0.78125,0,0,0.78125,0,0)">
<stop offset="0" style="stop-color:#1A6DFF;stop-opacity:1;"/>
<stop offset="1" style="stop-color:#C822FF;stop-opacity:1;"/>
</linearGradient>
<linearGradient id="linear4" gradientUnits="userSpaceOnUse" x1="50" y1="5.75" x2="50" y2="58.5118" spreadMethod="reflect" gradientTransform="matrix(0.78125,0,0,0.78125,0,0)">
<stop offset="0" style="stop-color:#1A6DFF;stop-opacity:1;"/>
<stop offset="1" style="stop-color:#C822FF;stop-opacity:1;"/>
</linearGradient>
<linearGradient id="linear5" gradientUnits="userSpaceOnUse" x1="50" y1="5.75" x2="50" y2="58.5118" spreadMethod="reflect" gradientTransform="matrix(0.78125,0,0,0.78125,0,0)">
<stop offset="0" style="stop-color:#1A6DFF;stop-opacity:1;"/>
<stop offset="1" style="stop-color:#C822FF;stop-opacity:1;"/>
</linearGradient>
<linearGradient id="linear6" gradientUnits="userSpaceOnUse" x1="47" y1="5.75" x2="47" y2="58.5118" spreadMethod="reflect" gradientTransform="matrix(0.78125,0,0,0.78125,0,0)">
<stop offset="0" style="stop-color:#1A6DFF;stop-opacity:1;"/>
<stop offset="1" style="stop-color:#C822FF;stop-opacity:1;"/>
</linearGradient>
</defs>
<g id="surface1">
<path style=" stroke:none;fill-rule:nonzero;fill:url(#linear0);" d="M 17.1875 29.75 L 17.1875 23.4375 L 15.625 23.4375 L 15.625 29.75 C 12.980469 30.132813 10.9375 32.40625 10.9375 35.15625 C 10.9375 38.171875 13.390625 40.625 16.40625 40.625 C 19.421875 40.625 21.875 38.171875 21.875 35.15625 C 21.875 32.40625 19.832031 30.128906 17.1875 29.75 Z M 16.40625 39.0625 C 14.253906 39.0625 12.5 37.308594 12.5 35.15625 C 12.5 33.003906 14.253906 31.25 16.40625 31.25 C 18.5625 31.25 20.3125 33.003906 20.3125 35.15625 C 20.3125 37.308594 18.5625 39.0625 16.40625 39.0625 Z "/>
<path style=" stroke:none;fill-rule:nonzero;fill:url(#linear1);" d="M 21.09375 26.160156 L 21.09375 7.03125 C 21.09375 5.738281 20.042969 4.6875 18.75 4.6875 L 14.0625 4.6875 C 12.769531 4.6875 11.71875 5.738281 11.71875 7.03125 L 11.71875 26.164063 C 8.363281 27.988281 6.183594 31.613281 6.25 35.339844 C 6.347656 40.621094 10.714844 45.089844 15.988281 45.304688 C 16.128906 45.308594 16.269531 45.3125 16.410156 45.3125 C 19.046875 45.3125 21.53125 44.316406 23.441406 42.480469 C 25.453125 40.546875 26.5625 37.945313 26.5625 35.15625 C 26.5625 31.421875 24.429688 27.945313 21.09375 26.160156 Z M 22.359375 41.355469 C 20.65625 42.992188 18.433594 43.835938 16.050781 43.742188 C 11.589844 43.5625 7.894531 39.78125 7.8125 35.316406 C 7.753906 32.023438 9.773438 28.820313 12.839844 27.347656 L 13.28125 27.132813 L 13.28125 20.3125 L 17.1875 20.3125 L 17.1875 18.75 L 13.28125 18.75 L 13.28125 17.1875 L 15.625 17.1875 L 15.625 15.625 L 13.28125 15.625 L 13.28125 14.0625 L 15.625 14.0625 L 15.625 12.5 L 13.28125 12.5 L 13.28125 10.9375 L 17.1875 10.9375 L 17.1875 9.375 L 13.28125 9.375 L 13.28125 7.03125 C 13.28125 6.601563 13.632813 6.25 14.0625 6.25 L 18.75 6.25 C 19.179688 6.25 19.53125 6.601563 19.53125 7.03125 L 19.53125 27.136719 L 19.976563 27.347656 C 23.027344 28.792969 25 31.859375 25 35.15625 C 25 37.515625 24.0625 39.71875 22.359375 41.355469 Z "/>
<path style=" stroke:none;fill-rule:nonzero;fill:url(#linear2);" d="M 18.75 35.15625 C 18.75 36.449219 17.699219 37.5 16.40625 37.5 C 15.113281 37.5 14.0625 36.449219 14.0625 35.15625 C 14.0625 33.863281 15.113281 32.8125 16.40625 32.8125 C 17.699219 32.8125 18.75 33.863281 18.75 35.15625 Z "/>
<path style=" stroke:none;fill-rule:nonzero;fill:url(#linear3);" d="M 43.75 9.375 C 43.75 8.511719 43.050781 7.8125 42.1875 7.8125 L 31.25 7.8125 C 30.386719 7.8125 29.6875 8.511719 29.6875 9.375 L 29.6875 10.9375 C 29.6875 11.800781 30.386719 12.5 31.25 12.5 L 42.1875 12.5 C 43.050781 12.5 43.75 11.800781 43.75 10.9375 Z M 42.1875 10.9375 L 31.25 10.9375 L 31.25 9.375 L 42.1875 9.375 Z "/>
<path style=" stroke:none;fill-rule:nonzero;fill:url(#linear4);" d="M 43.75 17.1875 C 43.75 16.324219 43.050781 15.625 42.1875 15.625 L 35.9375 15.625 C 35.074219 15.625 34.375 16.324219 34.375 17.1875 L 34.375 18.75 C 34.375 19.613281 35.074219 20.3125 35.9375 20.3125 L 42.1875 20.3125 C 43.050781 20.3125 43.75 19.613281 43.75 18.75 Z M 42.1875 18.75 L 35.9375 18.75 L 35.9375 17.1875 L 42.1875 17.1875 Z "/>
<path style=" stroke:none;fill-rule:nonzero;fill:url(#linear5);" d="M 43.75 25 C 43.75 24.136719 43.050781 23.4375 42.1875 23.4375 L 35.9375 23.4375 C 35.074219 23.4375 34.375 24.136719 34.375 25 L 34.375 26.5625 C 34.375 27.425781 35.074219 28.125 35.9375 28.125 L 42.1875 28.125 C 43.050781 28.125 43.75 27.425781 43.75 26.5625 Z M 42.1875 26.5625 L 35.9375 26.5625 L 35.9375 25 L 42.1875 25 Z "/>
<path style=" stroke:none;fill-rule:nonzero;fill:url(#linear6);" d="M 43.75 32.8125 C 43.75 31.949219 43.050781 31.25 42.1875 31.25 L 31.25 31.25 C 30.386719 31.25 29.6875 31.949219 29.6875 32.8125 L 29.6875 34.375 C 29.6875 35.238281 30.386719 35.9375 31.25 35.9375 L 42.1875 35.9375 C 43.050781 35.9375 43.75 35.238281 43.75 34.375 Z M 42.1875 34.375 L 31.25 34.375 L 31.25 32.8125 L 42.1875 32.8125 Z "/>
</g>
</svg>
