<?xml version="1.0" encoding="UTF-8"?>
<svg xmlns="http://www.w3.org/2000/svg" xmlns:xlink="http://www.w3.org/1999/xlink" width="50pt" height="50pt" viewBox="0 0 50 50" version="1.1">
<defs>
<linearGradient id="linear0" gradientUnits="userSpaceOnUse" x1="32.5" y1="49.8125" x2="32.5" y2="52.378" spreadMethod="reflect" gradientTransform="matrix(0.78125,0,0,0.78125,0,0)">
<stop offset="0" style="stop-color:#6DC7FF;stop-opacity:1;"/>
<stop offset="1" style="stop-color:#E6ABFF;stop-opacity:1;"/>
</linearGradient>
<linearGradient id="linear1" gradientUnits="userSpaceOnUse" x1="13.5" y1="49.8125" x2="13.5" y2="52.378" spreadMethod="reflect" gradientTransform="matrix(0.78125,0,0,0.78125,0,0)">
<stop offset="0" style="stop-color:#6DC7FF;stop-opacity:1;"/>
<stop offset="1" style="stop-color:#E6ABFF;stop-opacity:1;"/>
</linearGradient>
<linearGradient id="linear2" gradientUnits="userSpaceOnUse" x1="47" y1="49.8125" x2="47" y2="52.378" spreadMethod="reflect" gradientTransform="matrix(0.78125,0,0,0.78125,0,0)">
<stop offset="0" style="stop-color:#6DC7FF;stop-opacity:1;"/>
<stop offset="1" style="stop-color:#E6ABFF;stop-opacity:1;"/>
</linearGradient>
<linearGradient id="linear3" gradientUnits="userSpaceOnUse" x1="23" y1="8" x2="23" y2="54.6393" spreadMethod="reflect" gradientTransform="matrix(0.78125,0,0,0.78125,0,0)">
<stop offset="0" style="stop-color:#1A6DFF;stop-opacity:1;"/>
<stop offset="1" style="stop-color:#C822FF;stop-opacity:1;"/>
</linearGradient>
<linearGradient id="linear4" gradientUnits="userSpaceOnUse" x1="32" y1="8" x2="32" y2="54.6393" spreadMethod="reflect" gradientTransform="matrix(0.78125,0,0,0.78125,0,0)">
<stop offset="0" style="stop-color:#1A6DFF;stop-opacity:1;"/>
<stop offset="1" style="stop-color:#C822FF;stop-opacity:1;"/>
</linearGradient>
<linearGradient id="linear5" gradientUnits="userSpaceOnUse" x1="24" y1="8" x2="24" y2="54.6393" spreadMethod="reflect" gradientTransform="matrix(0.78125,0,0,0.78125,0,0)">
<stop offset="0" style="stop-color:#1A6DFF;stop-opacity:1;"/>
<stop offset="1" style="stop-color:#C822FF;stop-opacity:1;"/>
</linearGradient>
<linearGradient id="linear6" gradientUnits="userSpaceOnUse" x1="48" y1="8" x2="48" y2="54.6393" spreadMethod="reflect" gradientTransform="matrix(0.78125,0,0,0.78125,0,0)">
<stop offset="0" style="stop-color:#1A6DFF;stop-opacity:1;"/>
<stop offset="1" style="stop-color:#C822FF;stop-opacity:1;"/>
</linearGradient>
</defs>
<g id="surface1">
<path style=" stroke:none;fill-rule:nonzero;fill:url(#linear0);" d="M 22.65625 39.0625 L 28.125 39.0625 L 28.125 40.625 L 22.65625 40.625 Z "/>
<path style=" stroke:none;fill-rule:nonzero;fill:url(#linear1);" d="M 7.8125 39.0625 L 13.28125 39.0625 L 13.28125 40.625 L 7.8125 40.625 Z "/>
<path style=" stroke:none;fill-rule:nonzero;fill:url(#linear2);" d="M 31.25 39.0625 L 42.1875 39.0625 L 42.1875 40.625 L 31.25 40.625 Z "/>
<path style=" stroke:none;fill-rule:nonzero;fill:url(#linear3);" d="M 14.84375 26.5625 L 21.09375 26.5625 L 21.09375 28.125 L 14.84375 28.125 Z "/>
<path style=" stroke:none;fill-rule:nonzero;fill:url(#linear4);" d="M 45.3125 10.9375 L 45.3125 9.375 C 45.3125 8.511719 44.613281 7.8125 43.75 7.8125 L 12.5 7.8125 C 11.636719 7.8125 10.9375 8.511719 10.9375 9.375 L 10.9375 10.9375 C 10.9375 11.800781 11.636719 12.5 12.5 12.5 L 12.5 20.3125 L 6.25 20.3125 C 5.386719 20.3125 4.6875 21.011719 4.6875 21.875 L 4.6875 23.4375 C 4.6875 24.300781 5.386719 25 6.25 25 L 6.25 40.625 L 4.6875 40.625 L 4.6875 42.1875 L 45.3125 42.1875 L 45.3125 40.625 L 43.75 40.625 L 43.75 12.5 C 44.613281 12.5 45.3125 11.800781 45.3125 10.9375 Z M 12.5 9.375 L 43.75 9.375 L 43.75 10.9375 L 12.5 10.9375 Z M 6.25 21.875 L 29.6875 21.875 L 29.6875 23.4375 L 6.25 23.4375 Z M 20.3125 20.3125 L 17.1875 20.3125 L 17.1875 15.625 L 20.3125 15.625 Z M 29.6875 20.3125 L 26.5625 20.3125 L 26.5625 15.625 L 29.6875 15.625 Z M 21.09375 40.625 L 14.84375 40.625 L 14.84375 31.25 L 21.09375 31.25 Z M 22.65625 39.0625 L 28.125 39.0625 L 28.125 40.625 L 22.65625 40.625 Z M 28.125 25 L 28.125 34.375 L 25 34.375 L 25 35.9375 L 28.125 35.9375 L 28.125 37.5 L 22.65625 37.5 L 22.65625 31.25 C 22.65625 30.386719 21.957031 29.6875 21.09375 29.6875 L 14.84375 29.6875 C 13.980469 29.6875 13.28125 30.386719 13.28125 31.25 L 13.28125 37.5 L 7.8125 37.5 L 7.8125 35.9375 L 10.9375 35.9375 L 10.9375 34.375 L 7.8125 34.375 L 7.8125 25 Z M 7.8125 39.0625 L 13.28125 39.0625 L 13.28125 40.625 L 7.8125 40.625 Z M 42.1875 37.5 L 31.25 37.5 L 31.25 39.0625 L 42.1875 39.0625 L 42.1875 40.625 L 29.6875 40.625 L 29.6875 25 C 30.550781 25 31.25 24.300781 31.25 23.4375 L 31.25 15.625 C 31.25 14.761719 30.550781 14.0625 29.6875 14.0625 L 26.5625 14.0625 C 25.699219 14.0625 25 14.761719 25 15.625 L 25 20.3125 L 21.875 20.3125 L 21.875 15.625 C 21.875 14.761719 21.175781 14.0625 20.3125 14.0625 L 17.1875 14.0625 C 16.324219 14.0625 15.625 14.761719 15.625 15.625 L 15.625 20.3125 L 14.0625 20.3125 L 14.0625 12.5 L 42.1875 12.5 Z "/>
<path style=" stroke:none;fill-rule:nonzero;fill:url(#linear5);" d="M 17.96875 34.375 L 19.53125 34.375 L 19.53125 37.5 L 17.96875 37.5 Z "/>
<path style=" stroke:none;fill-rule:nonzero;fill:url(#linear6);" d="M 35.9375 34.375 L 39.0625 34.375 C 39.925781 34.375 40.625 33.675781 40.625 32.8125 L 40.625 15.625 C 40.625 14.761719 39.925781 14.0625 39.0625 14.0625 L 35.9375 14.0625 C 35.074219 14.0625 34.375 14.761719 34.375 15.625 L 34.375 32.8125 C 34.375 33.675781 35.074219 34.375 35.9375 34.375 Z M 35.9375 32.8125 L 35.9375 28.125 L 39.0625 28.125 L 39.0625 32.8125 Z M 35.9375 26.5625 L 35.9375 21.875 L 39.0625 21.875 L 39.0625 26.5625 Z M 39.0625 15.625 L 39.0625 20.3125 L 35.9375 20.3125 L 35.9375 15.625 Z "/>
</g>
</svg>
