<?xml version="1.0" encoding="UTF-8"?>
<svg xmlns="http://www.w3.org/2000/svg" xmlns:xlink="http://www.w3.org/1999/xlink" width="50pt" height="50pt" viewBox="0 0 50 50" version="1.1">
<defs>
<linearGradient id="linear0" gradientUnits="userSpaceOnUse" x1="32" y1="6.5" x2="32" y2="58.7596" spreadMethod="reflect" gradientTransform="matrix(0.78125,0,0,0.78125,0,0)">
<stop offset="0" style="stop-color:#1A6DFF;stop-opacity:1;"/>
<stop offset="1" style="stop-color:#C822FF;stop-opacity:1;"/>
</linearGradient>
<linearGradient id="linear1" gradientUnits="userSpaceOnUse" x1="39.2077" y1="19.1667" x2="39.2077" y2="45.8521" spreadMethod="reflect" gradientTransform="matrix(0.78125,0,0,0.78125,0,0)">
<stop offset="0" style="stop-color:#6DC7FF;stop-opacity:1;"/>
<stop offset="1" style="stop-color:#E6ABFF;stop-opacity:1;"/>
</linearGradient>
</defs>
<g id="surface1">
<path style=" stroke:none;fill-rule:nonzero;fill:url(#linear0);" d="M 35.953125 45.3125 L 32.78125 45.3125 C 32.371094 45.3125 31.984375 45.15625 31.691406 44.867188 L 13.179688 26.621094 C 12.742188 26.1875 12.5 25.613281 12.5 25 C 12.5 24.386719 12.742188 23.8125 13.179688 23.378906 L 31.691406 5.132813 C 31.984375 4.84375 32.367188 4.6875 32.78125 4.6875 L 35.953125 4.6875 C 36.585938 4.6875 37.144531 5.0625 37.382813 5.644531 C 37.621094 6.21875 37.488281 6.871094 37.042969 7.308594 L 19.613281 24.492188 C 19.472656 24.628906 19.398438 24.808594 19.398438 25 C 19.398438 25.191406 19.472656 25.371094 19.613281 25.507813 L 37.042969 42.691406 C 37.488281 43.128906 37.621094 43.78125 37.386719 44.355469 C 37.144531 44.9375 36.585938 45.3125 35.953125 45.3125 Z M 32.78125 6.25 L 14.277344 24.492188 C 14.140625 24.628906 14.0625 24.808594 14.0625 25 C 14.0625 25.191406 14.140625 25.371094 14.277344 25.507813 L 32.785156 43.753906 L 35.953125 43.75 L 18.515625 26.621094 C 18.078125 26.1875 17.835938 25.613281 17.835938 25 C 17.835938 24.386719 18.078125 23.8125 18.515625 23.378906 L 35.945313 6.199219 Z "/>
<path style=" stroke:none;fill-rule:nonzero;fill:url(#linear1);" d="M 34.605469 15.394531 L 25.554688 24.445313 C 25.25 24.753906 25.25 25.246094 25.554688 25.554688 L 34.605469 34.605469 C 35.097656 35.097656 35.9375 34.75 35.9375 34.054688 L 35.9375 15.945313 C 35.9375 15.25 35.097656 14.902344 34.605469 15.394531 Z "/>
</g>
</svg>
